<svg version="1.0" xmlns="http://www.w3.org/2000/svg" width="700.000000pt" height="700.000000pt" viewBox="0 0 700.000000 700.000000" preserveAspectRatio="xMidYMid meet">
<g transform="translate(0.000000,700.000000) scale(0.100000,-0.100000)" fill="#000000" stroke="none">
<path d="M0 3500 l0 -3500 3500 0 3500 0 0 3500 0 3500 -3500 0 -3500 0 0 -3500z m4200 1800 c200 -50 350 -200 400 -400 25 -100 25 -300 0 -400 -50 -200 -200 -350 -400 -400 -100 -25 -300 -25 -400 0 -200 50 -350 200 -400 400 -25 100 -25 300 0 400 50 200 200 350 400 400 100 25 300 25 400 0z"/>
</g>
</svg> 